<svg xmlns="http://www.w3.org/2000/svg" xmlns:xlink="http://www.w3.org/1999/xlink" version="1.1" x="0px" y="0px" viewBox="0 0 100 125" enable-background="new 0 0 100 100" xml:space="preserve"><g display="none"><rect x="-169.245" y="-34.243" display="inline" fill="#000000" width="1329.133" height="1263.126"/></g><g><path d="M32.825,26.171l1.607,2.4c1.264-0.847,1.706-1.967,1.897-3.008c0.082-0.447,0.122-0.882,0.153-1.271   c0.096-1.216,0.188-1.712,0.777-2.107c0.589-0.394,1.085-0.29,2.243,0.083c0.372,0.12,0.789,0.248,1.234,0.342   c1.035,0.22,2.24,0.238,3.503-0.608c1.263-0.846,1.705-1.966,1.895-3.007c0.082-0.447,0.122-0.882,0.152-1.271   c0.095-1.215,0.187-1.711,0.775-2.105c0.588-0.393,1.081-0.29,2.239,0.086c0.371,0.12,0.788,0.249,1.233,0.344   c1.034,0.221,2.238,0.239,3.501-0.607l-1.607-2.399c-0.587,0.392-1.08,0.288-2.24-0.086c-1.236-0.399-2.928-0.945-4.734,0.263   c-1.806,1.209-1.946,2.983-2.047,4.278c-0.095,1.215-0.187,1.711-0.775,2.105c-0.589,0.394-1.083,0.292-2.244-0.083   c-1.236-0.397-2.93-0.943-4.736,0.266c-1.807,1.21-1.947,2.984-2.049,4.279C33.506,25.28,33.414,25.777,32.825,26.171z"/><path d="M70.471,23.964c0.443-0.101,0.859-0.235,1.229-0.361c1.154-0.391,1.649-0.502,2.242-0.117   c0.596,0.386,0.695,0.881,0.809,2.096c0.037,0.389,0.083,0.822,0.172,1.268c0.206,1.038,0.664,2.152,1.941,2.98   c1.277,0.828,2.48,0.792,3.512,0.556c0.443-0.102,0.858-0.236,1.227-0.362c1.155-0.391,1.647-0.502,2.24-0.118   c0.593,0.385,0.691,0.879,0.804,2.091c0.036,0.389,0.083,0.823,0.171,1.269c0.205,1.038,0.663,2.151,1.938,2.978l1.572-2.423   c-0.593-0.385-0.692-0.879-0.805-2.092c-0.12-1.293-0.285-3.064-2.108-4.246c-1.825-1.184-3.509-0.611-4.74-0.195   c-1.154,0.392-1.645,0.503-2.24,0.118c-0.595-0.386-0.694-0.881-0.809-2.095c-0.121-1.293-0.288-3.065-2.112-4.248   c-1.826-1.184-3.51-0.613-4.74-0.196c-1.154,0.391-1.647,0.502-2.242,0.117l-1.572,2.423C68.235,24.235,69.439,24.2,70.471,23.964z   "/><path d="M80.595,8.299c0.409,0.408,1.073,0.408,1.482,0c0.408-0.408,0.408-1.074,0-1.482l-1.51-1.51   C80.369,5.109,80.106,5,79.826,5c-0.28,0-0.543,0.109-0.741,0.307c-0.198,0.198-0.307,0.461-0.307,0.741   c0,0.28,0.109,0.543,0.307,0.741L80.595,8.299z"/><path d="M85.319,13.023c0.396,0.396,1.086,0.396,1.482,0c0.198-0.198,0.307-0.461,0.307-0.741s-0.109-0.543-0.307-0.741l-1.51-1.51   c-0.198-0.198-0.461-0.307-0.741-0.307c-0.28,0-0.543,0.109-0.741,0.307c-0.198,0.198-0.307,0.461-0.307,0.741   c0,0.28,0.109,0.543,0.307,0.741L85.319,13.023z"/><path d="M81.336,9.725c-0.268,0-0.537,0.102-0.741,0.306l-1.51,1.51c-0.408,0.408-0.408,1.073,0,1.482   c0.409,0.409,1.074,0.408,1.482,0l1.51-1.51c0.408-0.408,0.408-1.074,0-1.482C81.873,9.827,81.604,9.725,81.336,9.725z"/><path d="M85.291,8.298l1.51-1.51c0.198-0.198,0.307-0.461,0.307-0.741s-0.109-0.543-0.307-0.741C86.603,5.109,86.34,5,86.06,5   s-0.543,0.109-0.741,0.307l-1.51,1.51c-0.198,0.198-0.307,0.461-0.307,0.741s0.109,0.543,0.307,0.741   C84.205,8.693,84.895,8.694,85.291,8.298z"/><path d="M12.072,21.651c0.409,0.408,1.074,0.408,1.482,0c0.408-0.408,0.408-1.074,0-1.482l-1.51-1.51   c-0.204-0.204-0.472-0.306-0.741-0.306c-0.268,0-0.536,0.102-0.741,0.306c-0.408,0.408-0.408,1.074,0,1.482L12.072,21.651z"/><path d="M16.796,26.375c0.396,0.396,1.086,0.396,1.482,0c0.198-0.198,0.307-0.461,0.307-0.741c0-0.28-0.109-0.543-0.307-0.741   l-1.51-1.51c-0.204-0.204-0.473-0.306-0.741-0.306c-0.268,0-0.536,0.102-0.741,0.306c-0.408,0.408-0.408,1.073,0,1.482   L16.796,26.375z"/><path d="M12.044,26.375l1.51-1.51c0.408-0.408,0.408-1.074,0-1.482c-0.204-0.204-0.472-0.306-0.741-0.306   c-0.268,0-0.536,0.102-0.741,0.306l-1.51,1.51c-0.408,0.408-0.408,1.073,0,1.482C10.971,26.785,11.636,26.784,12.044,26.375z"/><path d="M16.768,21.651l1.51-1.51c0.198-0.198,0.307-0.461,0.307-0.741c0-0.28-0.109-0.543-0.307-0.741   c-0.198-0.198-0.461-0.307-0.741-0.307c-0.28,0-0.543,0.109-0.741,0.307l-1.51,1.51c-0.408,0.408-0.408,1.073,0,1.482   C15.696,22.06,16.36,22.059,16.768,21.651z"/><path d="M28.546,16.257c2.834,0,5.14-2.306,5.14-5.14c0-2.834-2.306-5.14-5.14-5.14c-2.834,0-5.14,2.306-5.14,5.14   C23.406,13.952,25.712,16.257,28.546,16.257z M28.546,8.866c1.242,0,2.252,1.01,2.252,2.252c0,1.242-1.01,2.252-2.252,2.252   c-1.241,0-2.252-1.01-2.252-2.252C26.295,9.876,27.305,8.866,28.546,8.866z"/><g><path d="M73.398,67.854c0.268-4.17-2.954-8.51-7.034-9.496c-5.106-1.122-10.306-1.686-15.493-1.686    c-5.188,0-10.387,0.564-15.454,1.677c-4.12,0.996-7.342,5.336-7.075,9.486c0.328,4.404,0.655,8.884,0.982,13.453    c0.456,6.195,5.466,12.008,11.169,12.96C43.945,94.749,47.423,95,50.87,95c3.447,0,6.925-0.251,10.337-0.745    c5.744-0.959,10.754-6.771,11.21-12.963C72.745,76.719,73.072,72.238,73.398,67.854z"/><path d="M50.87,53.466c6.392,0,11.592-5.2,11.592-11.592c0-6.392-5.2-11.592-11.592-11.592c-6.392,0-11.592,5.2-11.592,11.592    C39.279,48.266,44.479,53.466,50.87,53.466z"/><path d="M26.443,81.495c-0.327-4.567-0.654-9.044-0.984-13.474c-0.09-1.393,0.105-2.788,0.533-4.118    c0.21-0.653,0.477-1.29,0.793-1.904c-0.669-0.024-1.337-0.055-2.005-0.055c0,0-0.001,0-0.001,0c-4.005,0-8.018,0.436-11.928,1.294    c-3.363,0.813-5.988,4.349-5.77,7.732c0.251,3.376,0.502,6.805,0.752,10.303c0.364,4.939,4.368,9.574,8.927,10.335    c2.674,0.388,5.359,0.582,8.019,0.582c2.05,0,4.114-0.117,6.157-0.345c-0.505-0.567-0.97-1.171-1.403-1.8    C27.804,87.535,26.67,84.579,26.443,81.495z"/><path d="M24.779,59.138c5.018,0,9.1-4.082,9.1-9.1s-4.082-9.1-9.1-9.1c-5.018,0-9.1,4.082-9.1,9.1S19.761,59.138,24.779,59.138z"/><path d="M87.926,64.183c-3.863-0.849-7.806-1.276-11.74-1.276h-0.001v0.963v1.971c0.104,0.736,0.142,1.482,0.094,2.228    c-0.031,0.42-0.063,0.853-0.094,1.275v5.529h-0.407c-0.16,2.188-0.319,4.397-0.48,6.631c-0.229,3.106-1.382,6.084-3.14,8.607    c-0.215,0.309-0.439,0.611-0.672,0.905c1.567,0.135,3.137,0.212,4.699,0.212c2.615,0,5.253-0.19,7.84-0.565    c4.168-0.696,7.813-4.936,8.146-9.456c0.251-3.501,0.501-6.931,0.751-10.288C93.111,67.963,90.823,64.883,87.926,64.183z"/><path d="M70.188,56.866c0.544,0.329,1.065,0.696,1.554,1.107c1.315,0.739,2.829,1.166,4.442,1.166c5.018,0,9.1-4.082,9.1-9.1    s-4.082-9.1-9.1-9.1s-9.1,4.082-9.1,9.1C67.084,52.758,68.29,55.197,70.188,56.866z"/></g></g></svg>