<svg xmlns="http://www.w3.org/2000/svg" data-name="Layer 1" viewBox="0 0 48 60" x="0px" y="0px"><path d="M10.824,8.18876H4.236V39.59911A2.84648,2.84648,0,0,0,7.0833,42.44645H40.91671a2.84647,2.84647,0,0,0,2.84734-2.84734V8.18876H37.176V5.55355h-2.6352V8.18876H29.27041V5.55355h-2.6352V8.18876H21.36479V5.55355h-2.6352V8.18876H13.45917V5.55355H10.824ZM22.6824,24.166a5.2813,5.2813,0,0,0-1.35977.56392l-1.04882-1.05012-1.8644,1.8644,1.05013,1.04882a5.282,5.282,0,0,0-.56394,1.35976H17.412V30.588H18.8956a5.28234,5.28234,0,0,0,.56394,1.35976L18.40941,32.9966l1.8644,1.8644,1.04882-1.05013a5.281,5.281,0,0,0,1.35977.56393v1.48363h2.6352V34.3748a5.281,5.281,0,0,0,1.35977-.56393L27.72619,34.861l1.8644-1.8644-1.05013-1.04882A5.28234,5.28234,0,0,0,29.1044,30.588H30.588V27.95281H29.1044a5.282,5.282,0,0,0-.56394-1.35976l1.05013-1.04882-1.8644-1.8644L26.67737,24.73A5.2813,5.2813,0,0,0,25.3176,24.166V22.6824H22.6824ZM24,26.63521a2.63521,2.63521,0,1,1-2.63521,2.6352A2.63616,2.63616,0,0,1,24,26.63521ZM10.824,10.824H6.87116v5.27041H41.12884V10.824H37.176v2.6352h-2.6352V10.824H29.27041v2.6352h-2.6352V10.824H21.36479v2.6352h-2.6352V10.824H13.45917v2.6352H10.824Z" fill-rule="evenodd"/></svg>